<svg width="33" height="32" viewBox="0 0 33 32" fill="none" xmlns="http://www.w3.org/2000/svg">
<path d="M12.3334 11.1738H18.5795C19.9642 11.1738 21.0872 12.42 21.0872 13.6815C21.0872 15.0661 19.9642 16.1892 18.5795 16.1892H12.3334V11.1738Z" stroke="#F97316" stroke-width="2" stroke-miterlimit="10" stroke-linecap="round" stroke-linejoin="round"/>
<path d="M12.3334 16.1738H19.4718C21.0565 16.1738 22.3334 17.2969 22.3334 18.6815C22.3334 20.0661 21.0565 21.1892 19.4718 21.1892H12.3334V16.1738Z" stroke="#F97316" stroke-width="2" stroke-miterlimit="10" stroke-linecap="round" stroke-linejoin="round"/>
<path d="M16.7026 21.1738V23.6815" stroke="#F97316" stroke-width="2" stroke-miterlimit="10" stroke-linecap="round" stroke-linejoin="round"/>
<path d="M13.5795 21.1738V23.6815" stroke="#F97316" stroke-width="1.5" stroke-miterlimit="10" stroke-linecap="round" stroke-linejoin="round"/>
<path d="M16.7026 8.66602V11.1737" stroke="#F97316" stroke-width="1.5" stroke-miterlimit="10" stroke-linecap="round" stroke-linejoin="round"/>
<path d="M13.5795 8.66602V11.1737" stroke="#F97316" stroke-width="1.5" stroke-miterlimit="10" stroke-linecap="round" stroke-linejoin="round"/>
<path d="M14.7026 11.1738H10.3334" stroke="#F97316" stroke-width="1.5" stroke-miterlimit="10" stroke-linecap="round" stroke-linejoin="round"/>
<path d="M14.7026 21.1738H10.3334" stroke="#F97316" stroke-width="1.5" stroke-miterlimit="10" stroke-linecap="round" stroke-linejoin="round"/>
<path d="M16.3333 29.3327C23.6971 29.3327 29.6667 23.3631 29.6667 15.9993C29.6667 8.63555 23.6971 2.66602 16.3333 2.66602C8.96954 2.66602 3 8.63555 3 15.9993C3 23.3631 8.96954 29.3327 16.3333 29.3327Z" stroke="#F97316" stroke-width="1.5" stroke-miterlimit="10"/>
</svg>
