<svg width="24" height="24" viewBox="0 0 24 24" fill="none" xmlns="http://www.w3.org/2000/svg">
<g clip-path="url(#clip0_12534_3424)">
<path fill-rule="evenodd" clip-rule="evenodd" d="M12 0C18.6274 0 24 5.37259 24 12C24 18.6274 18.6274 24 12 24C5.37259 24 0 18.6274 0 12C0 5.37259 5.37259 0 12 0Z" fill="white"/>
<path d="M13.5623 23.8992V14.6284H16.1775L16.5241 11.3655H13.5623L13.5667 9.73222C13.5667 8.88118 13.6476 8.42539 14.8707 8.42539H16.5058V5.16193H13.89C10.748 5.16193 9.64224 6.74471 9.64224 9.40685V11.3657H7.68359V14.6289H9.64224V23.7678C10.4053 23.9197 11.1941 24 12.0018 24C12.5236 24 13.0448 23.9664 13.5623 23.8992Z" fill="#F97316"/>
</g>
<defs>
<clipPath id="clip0_12534_3424">
<rect width="24" height="24" fill="white"/>
</clipPath>
</defs>
</svg>
