<svg width="50" height="50" viewBox="0 0 50 50" fill="none" xmlns="http://www.w3.org/2000/svg">
<rect x="1" y="1" width="48" height="48" rx="24" fill="white"/>
<rect x="1" y="1" width="48" height="48" rx="24" stroke="#F97316"/>
<path d="M28.3281 22.6702C28.3281 21.3802 27.3381 20.3402 26.1081 20.3402L23.5981 20.3402C22.5281 20.3402 21.6581 21.2502 21.6581 22.3702C21.6581 23.5902 22.1881 24.0202 22.9781 24.3002L27.0081 25.7002C27.7981 25.9802 28.3281 26.4102 28.3281 27.6302C28.3281 28.7502 27.4581 29.6602 26.3881 29.6602L23.8781 29.6602C22.6481 29.6602 21.6581 28.6202 21.6581 27.3302" stroke="#F97316" stroke-width="1.5" stroke-linecap="round" stroke-linejoin="round"/>
<path d="M25 31L25 19" stroke="#F97316" stroke-width="1.5" stroke-linecap="round" stroke-linejoin="round"/>
<path d="M25 15C19.4772 15 15 19.4772 15 25C15 30.5228 19.4772 35 25 35C30.5228 35 35 30.5228 35 25C35 19.4772 30.5228 15 25 15Z" stroke="#F97316" stroke-width="1.5" stroke-linecap="round" stroke-linejoin="round"/>
</svg>
