<svg width="33" height="32" viewBox="0 0 33 32" fill="none" xmlns="http://www.w3.org/2000/svg">
<path d="M25.9999 9.33268C25.9999 9.59935 25.9999 9.73268 25.9999 9.99935C25.8666 11.9993 24.9333 13.7327 23.7333 14.9327C22.2666 16.3993 20.2666 17.3327 17.9999 17.3327H13.8666C13.1999 17.3327 12.6666 17.866 12.5333 18.5327L11.4666 25.5994C11.3333 26.1327 11.0666 26.5327 10.5333 26.666C10.3999 26.666 10.2666 26.666 10.1333 26.666H7.59992C6.79992 26.666 6.13325 25.9993 6.26659 25.066L9.46659 5.99935C9.73325 4.13268 11.4666 2.66602 13.3333 2.66602H19.3333C23.0666 2.66602 25.9999 5.59935 25.9999 9.33268Z" stroke="#F97316" stroke-width="2" stroke-miterlimit="10"/>
<path d="M28.6666 14.6667C28.6666 16.5333 27.8666 18.1333 26.6666 19.3333C25.4666 20.5333 23.8666 21.3333 21.9999 21.3333H19.1999C18.5333 21.3333 17.9999 21.7333 17.8666 22.4L16.9333 28.1333C16.7999 28.8 16.2666 29.2 15.5999 29.2H11.5999C10.7999 29.2 10.1333 28.4 10.2666 27.6L10.5333 26.6667C11.0666 26.5333 11.4666 26.1333 11.4666 25.6L12.5333 18.5333C12.6666 17.8667 13.1999 17.3333 13.8666 17.3333H17.9999C20.2666 17.3333 22.2666 16.4 23.5999 14.9333C24.9333 13.6 25.7333 11.8667 25.8666 10C27.5999 10.9333 28.6666 12.6667 28.6666 14.6667Z" stroke="#FA8232" stroke-width="2" stroke-miterlimit="10"/>
</svg>
