<svg width="49" height="50" viewBox="0 0 49 50" fill="none" xmlns="http://www.w3.org/2000/svg">
<rect x="0.5" y="1" width="48" height="48" rx="24" fill="white"/>
<rect x="0.5" y="1" width="48" height="48" rx="24" stroke="#F97316"/>
<path d="M34.47 31.33C34.47 31.69 34.39 32.06 34.22 32.42C34.05 32.78 33.83 33.12 33.54 33.44C33.05 33.98 32.51 34.37 31.9 34.62C31.3 34.87 30.65 35 29.95 35C28.93 35 27.84 34.76 26.69 34.27C25.54 33.78 24.39 33.12 23.25 32.29C22.1 31.45 21.01 30.52 19.97 29.49C18.94 28.45 18.01 27.36 17.18 26.22C16.36 25.08 15.7 23.94 15.22 22.81C14.74 21.67 14.5 20.58 14.5 19.54C14.5 18.86 14.62 18.21 14.86 17.61C15.1 17 15.48 16.44 16.01 15.94C16.65 15.31 17.35 15 18.09 15C18.37 15 18.65 15.06 18.9 15.18C19.16 15.3 19.39 15.48 19.57 15.74L21.89 19.01C22.07 19.26 22.2 19.49 22.29 19.71C22.38 19.92 22.43 20.13 22.43 20.32C22.43 20.56 22.36 20.8 22.22 21.03C22.09 21.26 21.9 21.5 21.66 21.74L20.9 22.53C20.79 22.64 20.74 22.77 20.74 22.93C20.74 23.01 20.75 23.08 20.77 23.16C20.8 23.24 20.83 23.3 20.85 23.36C21.03 23.69 21.34 24.12 21.78 24.64C22.23 25.16 22.71 25.69 23.23 26.22C23.77 26.75 24.29 27.24 24.82 27.69C25.34 28.13 25.77 28.43 26.11 28.61C26.16 28.63 26.22 28.66 26.29 28.69C26.37 28.72 26.45 28.73 26.54 28.73C26.71 28.73 26.84 28.67 26.95 28.56L27.71 27.81C27.96 27.56 28.2 27.37 28.43 27.25C28.66 27.11 28.89 27.04 29.14 27.04C29.33 27.04 29.53 27.08 29.75 27.17C29.97 27.26 30.2 27.39 30.45 27.56L33.76 29.91C34.02 30.09 34.2 30.3 34.31 30.55C34.41 30.8 34.47 31.05 34.47 31.33Z" stroke="#F97316" stroke-width="1.5" stroke-miterlimit="10"/>
<path d="M31 22C31 21.4 30.53 20.48 29.83 19.73C29.19 19.04 28.34 18.5 27.5 18.5" stroke="#F97316" stroke-width="1.5" stroke-linecap="round" stroke-linejoin="round"/>
<path d="M34.5 22C34.5 18.13 31.37 15 27.5 15" stroke="#F97316" stroke-width="1.5" stroke-linecap="round" stroke-linejoin="round"/>
</svg>
