<svg width="49" height="50" viewBox="0 0 49 50" fill="none" xmlns="http://www.w3.org/2000/svg">
<rect x="0.5" y="1" width="48" height="48" rx="24" fill="white"/>
<rect x="0.5" y="1" width="48" height="48" rx="24" stroke="#F97316"/>
<path d="M14.8102 22.0302L16.7702 24.3602C17.0702 24.7102 17.0702 25.2902 16.7702 25.6402L14.8102 27.9702C14.5402 28.5102 14.8102 29.1702 15.3902 29.3702L16.7202 29.8102C17.0402 29.9202 17.5102 29.8102 17.7502 29.5702L20.0302 27.3002C20.1902 27.1302 20.5102 27.0002 20.7402 27.0002L23.5902 27.0002C24.0102 27.0002 24.2102 27.3102 24.0502 27.7002L21.9302 32.6102C21.6002 33.3802 22.0102 34.0102 22.8502 34.0102L24.1402 34.0102C24.8102 34.0102 25.5802 33.5102 25.8402 32.8902L28.2502 27.3002C28.3202 27.1402 28.5302 27.0002 28.7102 27.0002L31.7102 27.0002C32.6502 27.0002 33.7602 26.3102 34.1902 25.4702C34.3402 25.1702 34.3402 24.8202 34.1902 24.5202C33.7602 23.6802 32.6402 22.9902 31.7002 22.9902L28.7002 22.9902C28.5202 22.9902 28.3102 22.8502 28.2402 22.6902L25.8302 17.1102C25.5802 16.4902 24.8102 15.9902 24.1402 15.9902L22.8502 15.9902C22.0102 15.9902 21.6002 16.6202 21.9302 17.3902L24.0502 22.3002C24.2202 22.6802 24.0102 23.0002 23.5902 23.0002L20.7402 23.0002C20.5102 23.0002 20.1902 22.8702 20.0302 22.7102L17.7502 20.4402C17.5102 20.2002 17.0502 20.0902 16.7202 20.2002L15.3902 20.6402C14.8102 20.8202 14.5302 21.4802 14.8102 22.0302Z" stroke="#F97316" stroke-width="1.5" stroke-linecap="round" stroke-linejoin="round"/>
</svg>
