<svg width="20" height="20" viewBox="0 0 20 20" fill="none" xmlns="http://www.w3.org/2000/svg">
<path d="M17.5 4.98307C14.725 4.70807 11.9333 4.56641 9.15 4.56641C7.5 4.56641 5.85 4.64974 4.2 4.81641L2.5 4.98307" stroke="#001C41" stroke-width="1.5" stroke-linecap="round" stroke-linejoin="round"/>
<path d="M7.08334 4.14102L7.26668 3.04935C7.40001 2.25768 7.50001 1.66602 8.90834 1.66602H11.0917C12.5 1.66602 12.6083 2.29102 12.7333 3.05768L12.9167 4.14102" stroke="#001C41" stroke-width="1.5" stroke-linecap="round" stroke-linejoin="round"/>
<path d="M15.7083 7.61719L15.1667 16.0089C15.075 17.3172 15 18.3339 12.675 18.3339H7.32499C4.99999 18.3339 4.92499 17.3172 4.83332 16.0089L4.29166 7.61719" stroke="#001C41" stroke-width="1.5" stroke-linecap="round" stroke-linejoin="round"/>
<path d="M8.60834 13.75H11.3833" stroke="#001C41" stroke-width="1.5" stroke-linecap="round" stroke-linejoin="round"/>
<path d="M7.91666 10.416H12.0833" stroke="#001C41" stroke-width="1.5" stroke-linecap="round" stroke-linejoin="round"/>
</svg>
