<svg width="24" height="24" viewBox="0 0 24 24" fill="none" xmlns="http://www.w3.org/2000/svg">
<g clip-path="url(#clip0_12559_2885)">
<path d="M7.54849 21.7531C16.6055 21.7531 21.5585 14.2452 21.5585 7.7346C21.5585 7.52138 21.5541 7.30914 21.5445 7.09777C22.5083 6.4 23.34 5.53606 24.0007 4.54643C23.1184 4.93892 22.169 5.20308 21.173 5.32218C22.1897 4.71223 22.9701 3.74727 23.3383 2.59705C22.3717 3.17079 21.3143 3.57525 20.2116 3.79299C19.3131 2.8353 18.0339 2.23633 16.6174 2.23633C13.8981 2.23633 11.6931 4.4428 11.6931 7.16261C11.6931 7.54929 11.7363 7.92528 11.8208 8.28605C7.72839 8.08 4.09951 6.11944 1.67088 3.1383C1.23346 3.8902 1.00338 4.74475 1.00415 5.61469C1.00415 7.32407 1.87342 8.83306 3.19537 9.7159C2.41342 9.692 1.64863 9.48067 0.965318 9.09966C0.964586 9.12034 0.964586 9.14049 0.964586 9.1626C0.964586 11.5487 2.66185 13.5409 4.91493 13.9923C4.49177 14.1076 4.05512 14.1659 3.61654 14.1657C3.29981 14.1657 2.99112 14.1345 2.69112 14.0769C3.318 16.0345 5.13576 17.4591 7.29093 17.4989C5.60561 18.8206 3.48263 19.6079 1.17527 19.6079C0.782756 19.6082 0.390565 19.5854 0.000732422 19.5396C2.17995 20.9373 4.76756 21.7528 7.54873 21.7528" fill="#001C41"/>
</g>
<defs>
<clipPath id="clip0_12559_2885">
<rect width="24" height="24" fill="white" transform="translate(0.000732422)"/>
</clipPath>
</defs>
</svg>
