<svg width="24" height="24" viewBox="0 0 24 24" fill="none" xmlns="http://www.w3.org/2000/svg">
<g clip-path="url(#clip0_12534_3427)">
<path d="M7.54873 21.7536C16.6058 21.7536 21.5587 14.2457 21.5587 7.73506C21.5587 7.52184 21.5544 7.30959 21.5448 7.09823C22.5085 6.40046 23.3403 5.53651 24.001 4.54689C23.1187 4.93938 22.1693 5.20354 21.1733 5.32264C22.1899 4.71269 22.9703 3.74773 23.3386 2.59751C22.372 3.17125 21.3146 3.57571 20.2119 3.79345C19.3133 2.83576 18.0341 2.23679 16.6176 2.23679C13.8984 2.23679 11.6933 4.44326 11.6933 7.16307C11.6933 7.54975 11.7366 7.92574 11.8211 8.28651C7.72863 8.08046 4.09976 6.1199 1.67112 3.13875C1.2337 3.89066 1.00363 4.74521 1.00439 5.61514C1.00439 7.32452 1.87366 8.83351 3.19561 9.71636C2.41366 9.69246 1.64888 9.48112 0.965562 9.10011C0.96483 9.1208 0.96483 9.14095 0.96483 9.16306C0.96483 11.5491 2.6621 13.5414 4.91517 13.9928C4.49201 14.1081 4.05536 14.1664 3.61678 14.1661C3.30005 14.1661 2.99137 14.135 2.69137 14.0773C3.31824 16.035 5.136 17.4596 7.29117 17.4994C5.60585 18.8211 3.48288 19.6084 1.17551 19.6084C0.783 19.6087 0.390809 19.5859 0.000976562 19.5401C2.1802 20.9377 4.76781 21.7532 7.54898 21.7532" fill="white"/>
</g>
<defs>
<clipPath id="clip0_12534_3427">
<rect width="24" height="24" fill="white" transform="translate(0.000976562)"/>
</clipPath>
</defs>
</svg>
