<svg width="24" height="25" viewBox="0 0 24 25" fill="none" xmlns="http://www.w3.org/2000/svg">
<path d="M8.37988 12.5001L10.7899 14.9201L15.6199 10.0801" stroke="#F97316" stroke-width="1.5" stroke-linecap="round" stroke-linejoin="round"/>
<path d="M10.7499 2.95031C11.4399 2.36031 12.5699 2.36031 13.2699 2.95031L14.8499 4.31031C15.1499 4.57031 15.7099 4.78031 16.1099 4.78031H17.8099C18.8699 4.78031 19.7399 5.65031 19.7399 6.71031V8.41031C19.7399 8.80031 19.9499 9.37031 20.2099 9.67031L21.5699 11.2503C22.1599 11.9403 22.1599 13.0703 21.5699 13.7703L20.2099 15.3503C19.9499 15.6503 19.7399 16.2103 19.7399 16.6103V18.3103C19.7399 19.3703 18.8699 20.2403 17.8099 20.2403H16.1099C15.7199 20.2403 15.1499 20.4503 14.8499 20.7103L13.2699 22.0703C12.5799 22.6603 11.4499 22.6603 10.7499 22.0703L9.16988 20.7103C8.86988 20.4503 8.30988 20.2403 7.90988 20.2403H6.17988C5.11988 20.2403 4.24988 19.3703 4.24988 18.3103V16.6003C4.24988 16.2103 4.03988 15.6503 3.78988 15.3503L2.43988 13.7603C1.85988 13.0703 1.85988 11.9503 2.43988 11.2603L3.78988 9.67031C4.03988 9.37031 4.24988 8.81031 4.24988 8.42031V6.70031C4.24988 5.64031 5.11988 4.77031 6.17988 4.77031H7.90988C8.29988 4.77031 8.86988 4.56031 9.16988 4.30031L10.7499 2.95031Z" stroke="#F97316" stroke-width="1.5" stroke-linecap="round" stroke-linejoin="round"/>
</svg>
